<svg xmlns="http://www.w3.org/2000/svg" width="200" height="200" viewBox="0 0 200 200"><path fill="#5b5b5b" d="M100 16L100 58L58 58ZM142 58L100 58L100 16ZM100 184L100 142L142 142ZM58 142L100 142L100 184ZM58 58L58 100L16 100ZM184 100L142 100L142 58ZM142 142L142 100L184 100ZM16 100L58 100L58 142Z"/><path fill="#8f84d6" d="M37 16L58 37L37 58L16 37ZM184 37L163 58L142 37L163 16ZM163 184L142 163L163 142L184 163ZM16 163L37 142L58 163L37 184ZM74.8 100a25.2,25.2 0 1,1 50.4,0a25.2,25.2 0 1,1 -50.4,0"/></svg>