<svg xmlns="http://www.w3.org/2000/svg" width="200" height="200" viewBox="0 0 200 200"><path fill="#2e8c69" d="M79 58L58 37L79 16L100 37ZM100 37L121 16L142 37L121 58ZM121 142L142 163L121 184L100 163ZM100 163L79 184L58 163L79 142ZM37 100L16 79L37 58L58 79ZM142 79L163 58L184 79L163 100ZM163 100L184 121L163 142L142 121ZM58 121L37 142L16 121L37 100Z"/><path fill="#ace3ce" d="M23 37a14,14 0 1,1 28,0a14,14 0 1,1 -28,0M149 37a14,14 0 1,1 28,0a14,14 0 1,1 -28,0M149 163a14,14 0 1,1 28,0a14,14 0 1,1 -28,0M23 163a14,14 0 1,1 28,0a14,14 0 1,1 -28,0"/><path fill="#59c79e" d="M58 58L100 58L100 100L58 100ZM73.1 84a10.9,10.9 0 1,0 21.8,0a10.9,10.9 0 1,0 -21.8,0M142 58L142 100L100 100L100 58ZM105 84a10.9,10.9 0 1,0 21.8,0a10.9,10.9 0 1,0 -21.8,0M142 142L100 142L100 100L142 100ZM105 116a10.9,10.9 0 1,0 21.8,0a10.9,10.9 0 1,0 -21.8,0M58 142L58 100L100 100L100 142ZM73.1 116a10.9,10.9 0 1,0 21.8,0a10.9,10.9 0 1,0 -21.8,0"/></svg>