<svg xmlns="http://www.w3.org/2000/svg" width="200" height="200" viewBox="0 0 200 200"><path fill="#e8e8e8" d="M79 58L58 37L79 16L100 37ZM100 37L121 16L142 37L121 58ZM121 142L142 163L121 184L100 163ZM100 163L79 184L58 163L79 142ZM37 100L16 79L37 58L58 79ZM142 79L163 58L184 79L163 100ZM163 100L184 121L163 142L142 121ZM58 121L37 142L16 121L37 100Z"/><path fill="#d175c2" d="M37 16L58 37L37 58L16 37ZM184 37L163 58L142 37L163 16ZM163 184L142 163L163 142L184 163ZM16 163L37 142L58 163L37 184ZM58 58L100 58L100 87.4L74.8 74.8L87.4 100L58 100ZM142 58L142 100L112.6 100L125.2 74.8L100 87.4L100 58ZM142 142L100 142L100 112.6L125.2 125.2L112.6 100L142 100ZM58 142L58 100L87.4 100L74.8 125.2L100 112.6L100 142Z"/></svg>