<svg xmlns="http://www.w3.org/2000/svg" width="200" height="200" viewBox="0 0 200 200"><path fill="#545454" d="M100 16L100 58L58 58ZM142 58L100 58L100 16ZM100 184L100 142L142 142ZM58 142L100 142L100 184ZM58 58L58 100L16 100ZM184 100L142 100L142 58ZM142 142L142 100L184 100ZM16 100L58 100L58 142Z"/><path fill="#a375d1" d="M23 37a14,14 0 1,1 28,0a14,14 0 1,1 -28,0M149 37a14,14 0 1,1 28,0a14,14 0 1,1 -28,0M149 163a14,14 0 1,1 28,0a14,14 0 1,1 -28,0M23 163a14,14 0 1,1 28,0a14,14 0 1,1 -28,0"/><path fill="#d1bae8" d="M100 79L100 100L79 100ZM121 100L100 100L100 79ZM100 121L100 100L121 100ZM79 100L100 100L100 121Z"/></svg>