<svg xmlns="http://www.w3.org/2000/svg" width="200" height="200" viewBox="0 0 200 200"><path fill="#464646" d="M58 58L58 16L79 16ZM100 16L142 16L142 37ZM142 142L142 184L121 184ZM100 184L58 184L58 163ZM16 100L16 58L37 58ZM142 58L184 58L184 79ZM184 100L184 142L163 142ZM58 142L16 142L16 121Z"/><path fill="#e3e3e3" d="M37 16L58 37L37 58L16 37ZM184 37L163 58L142 37L163 16ZM163 184L142 163L163 142L184 163ZM16 163L37 142L58 163L37 184Z"/><path fill="#59bbc7" d="M58 58L100 58L100 100L58 100ZM84.9 95.8L95.8 74L74 74ZM142 58L142 100L100 100L100 58ZM104.2 84.9L126 95.8L126 74ZM142 142L100 142L100 100L142 100ZM115.1 104.2L104.2 126L126 126ZM58 142L58 100L100 100L100 142ZM95.8 115.1L74 104.2L74 126Z"/></svg>