<svg xmlns="http://www.w3.org/2000/svg" width="200" height="200" viewBox="0 0 200 200"><path fill="#e3e3e3" d="M79 16L100 37L79 58L58 37ZM142 37L121 58L100 37L121 16ZM121 184L100 163L121 142L142 163ZM58 163L79 142L100 163L79 184ZM37 58L58 79L37 100L16 79ZM184 79L163 100L142 79L163 58ZM163 142L142 121L163 100L184 121ZM16 121L37 100L58 121L37 142Z"/><path fill="#59c79d" d="M16 37L37 16L58 37L37 58ZM163 16L184 37L163 58L142 37ZM184 163L163 184L142 163L163 142ZM37 184L16 163L37 142L58 163Z"/><path fill="#2e8c68" d="M58 58L100 58L100 100L58 100ZM72 95L95 95L95 72L72 72ZM142 58L142 100L100 100L100 58ZM105 72L105 95L128 95L128 72ZM142 142L100 142L100 100L142 100ZM128 105L105 105L105 128L128 128ZM58 142L58 100L100 100L100 142ZM95 128L95 105L72 105L72 128Z"/></svg>