<svg xmlns="http://www.w3.org/2000/svg" width="200" height="200" viewBox="0 0 200 200"><path fill="#4c4c4c" d="M58 16L100 16L100 58ZM142 16L142 58L100 58ZM142 184L100 184L100 142ZM58 184L58 142L100 142ZM16 58L58 58L58 100ZM184 58L184 100L142 100ZM184 142L142 142L142 100ZM16 142L16 100L58 100Z"/><path fill="#66cc8c" d="M58 58L16 58L16 16ZM142 58L142 16L184 16ZM142 142L184 142L184 184ZM58 142L58 184L16 184ZM100 79L100 100L79 100ZM121 100L100 100L100 79ZM100 121L100 100L121 100ZM79 100L100 100L100 121Z"/></svg>