<?xml version="1.0" standalone="no"?>
<!DOCTYPE svg PUBLIC "-//W3C//DTD SVG 20010904//EN"
 "http://www.w3.org/TR/2001/REC-SVG-20010904/DTD/svg10.dtd">
<svg version="1.0" xmlns="http://www.w3.org/2000/svg"
 width="708.000000pt" height="324.000000pt" viewBox="0 0 708.000000 324.000000"
 preserveAspectRatio="xMidYMid meet">

<g transform="translate(0.000000,324.000000) scale(0.100000,-0.100000)"
fill="#000000" stroke="none">
<path d="M77 3193 c-4 -3 -7 -707 -7 -1563 0 -1197 3 -1559 12 -1568 9 -9 370
-12 1563 -12 852 0 1556 4 1563 8 10 7 12 328 10 1573 l-3 1564 -1566 3 c-861
1 -1569 -1 -1572 -5z m1531 -270 c2 -137 -1 -193 -9 -193 -6 0 -36 7 -67 16
-157 46 -338 -39 -414 -194 -30 -60 -33 -75 -33 -157 0 -78 4 -98 28 -150 58
-125 175 -204 312 -212 46 -3 87 1 120 11 27 8 53 12 58 7 4 -4 6 -90 5 -192
l-3 -184 -249 -5 c-297 -6 -291 -3 -236 -102 32 -57 35 -70 35 -143 0 -71 -3
-86 -31 -135 -144 -255 -527 -155 -526 138 0 54 5 75 36 134 58 111 65 108
-234 108 l-250 0 0 725 0 725 728 -2 727 -3 3 -192z m1537 -528 l0 -720 -199
-3 c-186 -2 -198 -1 -192 15 67 174 -4 377 -161 460 -147 79 -303 59 -424 -54
-97 -90 -135 -216 -105 -346 9 -38 16 -70 16 -73 0 -2 -88 -4 -195 -4 l-195 0
0 236 c0 143 -4 243 -10 255 -14 25 -45 24 -82 -2 -101 -72 -245 -60 -339 28
-66 62 -92 118 -92 202 -1 161 120 284 279 285 50 0 75 -7 127 -32 35 -18 72
-32 80 -32 32 0 37 37 37 274 l0 236 728 -2 727 -3 0 -720z m-594 -317 c121
-72 175 -205 134 -330 -9 -29 -25 -65 -36 -79 -24 -35 -24 -65 0 -79 12 -6
114 -10 260 -10 l241 0 -2 -722 -3 -723 -727 -3 -728 -2 0 199 0 199 47 -14
c69 -21 182 -18 248 7 67 25 151 99 187 166 34 63 52 152 43 219 -14 113 -108
240 -213 286 -77 35 -213 36 -294 3 -17 -7 -18 6 -18 189 l0 196 240 0 c227 0
241 1 260 20 l20 20 -34 65 c-42 79 -51 128 -36 199 17 83 71 153 150 194 61
32 70 34 141 30 59 -4 86 -10 120 -30z m-2015 -520 c-33 -114 -28 -207 16
-297 31 -63 107 -137 176 -169 49 -23 70 -27 152 -27 84 0 101 4 150 28 73 37
141 106 176 176 41 84 45 205 9 294 -7 16 6 17 194 17 l201 0 0 -244 c0 -294
-3 -286 101 -232 61 31 80 36 138 36 252 -1 374 -298 196 -476 -101 -101 -238
-111 -368 -27 -21 14 -31 15 -45 7 -15 -10 -18 -38 -22 -260 l-5 -249 -727 -3
-728 -2 0 725 0 725 196 0 196 0 -6 -22z"/>
<path d="M648 2778 c-3 -29 -7 -33 -43 -40 -151 -32 -220 -237 -112 -336 14
-13 54 -34 89 -47 l63 -23 3 -131 3 -131 -26 0 c-36 0 -101 62 -112 108 -8 33
-13 37 -42 40 -46 5 -55 -7 -41 -58 24 -89 95 -155 188 -175 30 -6 32 -10 32
-46 0 -38 2 -40 28 -37 23 3 27 8 30 39 3 35 6 38 50 49 69 17 117 54 147 113
28 57 32 120 11 170 -19 48 -88 102 -149 119 l-52 15 -3 126 c-1 70 1 127 5
127 23 0 75 -44 90 -77 16 -33 23 -38 56 -41 33 -3 37 -1 37 20 0 13 -15 48
-32 78 -32 52 -79 88 -137 103 -16 4 -21 13 -21 36 0 28 -3 31 -29 31 -26 0
-30 -4 -33 -32z m2 -234 l0 -116 -26 6 c-100 26 -126 155 -40 207 62 38 66 33
66 -97z m131 -257 c18 -12 40 -34 47 -47 17 -32 9 -96 -16 -129 -18 -25 -79
-54 -94 -44 -5 2 -8 58 -8 124 0 134 5 141 71 96z"/>
<path d="M2295 3037 c-159 -53 -253 -168 -263 -323 -6 -93 11 -160 58 -232 41
-64 113 -118 194 -145 139 -47 311 10 400 132 51 69 68 122 69 217 0 71 -4 90
-31 148 -60 128 -175 207 -312 213 -45 2 -91 -3 -115 -10z m65 -152 c0 -24 5
-35 15 -35 10 0 15 11 15 35 0 31 3 35 25 35 22 0 25 -4 25 -33 0 -31 4 -35
40 -46 22 -6 44 -20 50 -31 15 -29 12 -71 -7 -93 -15 -16 -15 -21 -4 -25 29
-10 51 -43 51 -76 0 -47 -32 -83 -88 -99 -44 -13 -47 -16 -50 -51 -3 -32 -6
-37 -25 -34 -17 2 -23 11 -25 41 -5 54 -32 51 -32 -4 0 -36 -2 -40 -22 -37
-19 2 -24 10 -26 41 -3 36 -4 37 -43 37 -35 0 -39 3 -39 24 0 18 6 25 23 28
21 3 22 6 22 118 l0 115 -28 3 c-23 3 -28 8 -25 25 3 19 10 22 51 25 46 3 47
4 47 38 0 30 3 34 25 34 22 0 25 -4 25 -35z"/>
<path d="M2350 2750 c0 -46 2 -50 25 -50 13 0 35 5 49 11 63 29 29 89 -50 89
-22 0 -24 -4 -24 -50z"/>
<path d="M2350 2610 l0 -50 38 0 c48 0 86 20 90 47 4 30 -33 53 -85 53 l-43 0
0 -50z"/>
<path d="M2393 1191 c-24 -4 -55 -18 -69 -32 -52 -49 -54 -59 -54 -336 0 -296
3 -310 80 -350 42 -22 52 -23 289 -23 278 0 309 7 349 72 21 34 22 46 22 300
0 258 -1 266 -22 298 -51 74 -53 75 -316 77 -130 1 -256 -2 -279 -6z m357
-105 c0 -36 -5 -68 -11 -72 -6 -4 -9 -19 -5 -36 4 -22 -5 -50 -39 -118 -25
-50 -47 -90 -49 -90 -2 0 -18 36 -36 80 -18 44 -36 80 -41 80 -5 0 -21 -25
-36 -55 -29 -59 -34 -63 -53 -40 -19 22 -34 18 -58 -15 -19 -26 -29 -30 -67
-30 l-45 0 0 135 c0 101 4 143 15 165 29 57 42 60 242 60 l183 0 0 -64z m182
35 l33 -29 0 -143 c0 -166 -9 -181 -55 -90 -17 34 -33 61 -37 61 -3 0 -14 -7
-24 -16 -16 -15 -19 -14 -32 13 -9 17 -11 36 -7 48 4 12 2 31 -6 47 -14 28
-19 119 -7 131 3 4 28 7 55 7 39 0 54 -6 80 -29z m-187 -619 c-4 -11 -39 -13
-185 -10 l-180 3 -32 33 c-32 31 -33 36 -36 122 l-4 90 55 0 c49 0 58 3 75 27
l20 28 28 -25 c15 -14 28 -20 30 -15 11 29 45 75 53 71 4 -3 21 -39 37 -81 16
-41 31 -75 34 -75 3 0 28 43 55 94 l50 95 3 -172 c1 -94 0 -178 -3 -185z m146
303 c20 -37 29 -45 51 -45 l28 0 0 -95 c0 -91 -1 -96 -30 -129 -22 -25 -41
-35 -73 -40 -78 -12 -77 -15 -77 171 0 156 1 164 19 158 10 -3 24 1 31 10 19
23 25 19 51 -30z"/>
<path d="M838 986 l-3 -48 -62 -19 c-120 -37 -219 -160 -230 -287 -10 -110 46
-232 135 -296 34 -24 47 -28 60 -20 29 19 24 38 -13 59 -109 58 -157 221 -101
340 28 61 101 128 161 148 24 9 46 13 49 9 3 -3 6 -24 6 -46 l0 -40 55 54 c30
30 55 59 55 65 -1 5 -25 37 -55 70 l-54 60 -3 -49z"/>
<path d="M1008 874 c-15 -15 -13 -20 34 -56 156 -124 125 -377 -56 -459 -60
-27 -66 -25 -66 23 l0 42 -46 -44 c-74 -72 -74 -74 -12 -137 l53 -54 5 43 c5
40 8 43 51 59 150 53 238 185 227 339 -7 88 -43 165 -105 220 -51 44 -61 47
-85 24z"/>
<path d="M703 730 c-22 -9 -23 -15 -23 -114 l0 -104 68 1 c43 1 85 -6 117 -17
56 -21 127 -24 168 -8 l27 12 0 111 c0 94 -2 110 -15 105 -47 -18 -114 -17
-189 3 -86 23 -118 25 -153 11z m215 -82 c7 -7 12 -21 12 -33 0 -29 -19 -45
-52 -45 -36 0 -56 36 -39 69 13 23 59 29 79 9z"/>
<path d="M5599 2061 c-33 -26 -43 -63 -29 -106 13 -38 44 -55 104 -55 63 0 96
29 96 85 0 63 -24 87 -91 93 -44 3 -59 0 -80 -17z"/>
<path d="M6728 2061 c-52 -41 -45 -127 13 -151 43 -18 119 -7 141 20 23 29 23
91 0 120 -28 34 -117 40 -154 11z"/>
<path d="M3910 1717 c0 -314 5 -357 53 -428 27 -41 104 -94 160 -111 23 -7 85
-13 137 -13 117 0 193 22 253 75 92 81 109 169 105 530 l-3 235 -85 0 -85 0
-5 -295 c-5 -288 -6 -296 -28 -333 -33 -52 -73 -71 -152 -71 -77 0 -123 22
-155 76 -18 30 -20 56 -25 328 l-5 295 -82 3 -83 3 0 -294z"/>
<path d="M5960 1590 l0 -420 85 0 85 0 2 173 3 172 173 3 172 2 0 70 0 70
-175 0 -175 0 0 105 0 105 225 0 226 0 -3 68 -3 67 -307 3 -308 2 0 -420z"/>
<path d="M5125 1810 c-53 -8 -97 -32 -129 -71 -15 -17 -29 -29 -33 -26 -3 3
-8 27 -11 52 l-5 46 -71 -3 -71 -3 0 -315 0 -315 83 -3 82 -3 0 183 c1 215 13
268 69 305 41 27 106 30 140 7 45 -32 51 -68 51 -289 l0 -205 85 0 86 0 -3
253 -3 254 -27 41 c-49 73 -143 109 -243 92z"/>
<path d="M5580 1490 l0 -320 85 0 85 0 0 320 0 320 -85 0 -85 0 0 -320z"/>
<path d="M6715 1797 c-3 -7 -4 -149 -3 -317 l3 -305 83 -3 82 -3 0 321 0 320
-80 0 c-56 0 -82 -4 -85 -13z"/>
</g>
</svg>
