<svg xmlns="http://www.w3.org/2000/svg" xmlns:xlink="http://www.w3.org/1999/xlink" width="290" height="182" viewBox="0 0 290 182">
    <defs>
        <linearGradient id="prefix__e" x1="50%" x2="50%" y1="0%" y2="100%">
            <stop offset="0%" stop-color="#FFF" stop-opacity=".75"/>
            <stop offset="100%" stop-color="#2C2C2C" stop-opacity="0"/>
        </linearGradient>
        <linearGradient id="prefix__f" x1="0%" x2="122.816%" y1="50%" y2="50%">
            <stop offset="0%" stop-color="#FFF"/>
            <stop offset="100%" stop-color="#FFF" stop-opacity="0"/>
        </linearGradient>
        <linearGradient id="prefix__i" x1="50%" x2="50%" y1="0%" y2="100%">
            <stop offset="0%" stop-color="#FFF" stop-opacity=".75"/>
            <stop offset="48.301%" stop-color="#999" stop-opacity=".388"/>
            <stop offset="100%" stop-color="#2C2C2C" stop-opacity="0"/>
        </linearGradient>
        <linearGradient id="prefix__j" x1="0%" x2="122.816%" y1="50%" y2="50%">
            <stop offset="0%" stop-color="#FFF"/>
            <stop offset="100%" stop-color="#FFF" stop-opacity="0"/>
        </linearGradient>
        <filter id="prefix__c" width="120.2%" height="121.9%" x="-10.1%" y="-10.6%" filterUnits="objectBoundingBox">
            <feMorphology in="SourceAlpha" operator="dilate" radius="2.5" result="shadowSpreadOuter1"/>
            <feOffset dy="1" in="shadowSpreadOuter1" result="shadowOffsetOuter1"/>
            <feGaussianBlur in="shadowOffsetOuter1" result="shadowBlurOuter1" stdDeviation="8"/>
            <feComposite in="shadowBlurOuter1" in2="SourceAlpha" operator="out" result="shadowBlurOuter1"/>
            <feColorMatrix in="shadowBlurOuter1" values="0 0 0 0 0 0 0 0 0 0 0 0 0 0 0 0 0 0 0.1 0"/>
        </filter>
        <filter id="prefix__k" width="139.2%" height="139.2%" x="-19.6%" y="-18.8%" filterUnits="objectBoundingBox">
            <feMorphology in="SourceAlpha" operator="dilate" radius="1" result="shadowSpreadOuter1"/>
            <feOffset dy="1" in="shadowSpreadOuter1" result="shadowOffsetOuter1"/>
            <feGaussianBlur in="shadowOffsetOuter1" result="shadowBlurOuter1" stdDeviation="7"/>
            <feColorMatrix in="shadowBlurOuter1" values="0 0 0 0 0 0 0 0 0 0 0 0 0 0 0 0 0 0 0.1 0"/>
        </filter>
        <rect id="prefix__a" width="290" height="182" x="0" y="0" rx="10"/>
        <rect id="prefix__d" width="307" height="283" x="14" y="0" rx="7"/>
        <circle id="prefix__l" cx="50.5" cy="146.5" r="62.5"/>
        <path id="prefix__g" d="M0 0L8.165 0 8.165 10.92 0 10.92z"/>
    </defs>
    <g fill="none" fill-rule="evenodd">
        <mask id="prefix__b" fill="#fff">
            <use xlink:href="#prefix__a"/>
        </mask>
        <use fill="#FFF" xlink:href="#prefix__a"/>
        <g mask="url(#prefix__b)">
            <g>
                <g transform="translate(64 26)">
                    <use fill="#000" filter="url(#prefix__c)" xlink:href="#prefix__d"/>
                    <rect width="307.5" height="283.5" x="13.75" y="-.25" fill="#FFF" fill-opacity=".6" stroke="#979797" stroke-opacity=".05" stroke-width=".5" rx="7"/>
                </g>
                <g>
                    <g transform="translate(64 26) translate(14 10) translate(23 20)">
                        <rect width="30" height="30" fill="#4D7795" rx="4"/>
                        <path fill="#FFF" d="M20.571 16.186L15 24l-5.571-7.814 5.57 3.36 5.572-3.36zM15 6l5.571 9.108L15 18.468l-5.571-3.36L15 6z"/>
                        <rect fill="url(#prefix__e)" style="mix-blend-mode:overlay" width="30" height="30" rx="4"/>
                    </g>
                    <g>
                        <path fill="#F6FCEE" fill-opacity=".5" d="M2 14.293L4.942 11.534 9.355 11.534 10.826 14.983 13.4 14.983 17.445 12.224 20.755 14.293 23.329 10.845 28.11 8.086 30.316 5.328 35.465 3.948 37.303 6.017 40.245 8.086 43.923 5.328 47.232 5.672 48.703 5.672 52.013 0.5 57.161 3.948 59 0.5 59 27.791 2 27.791z" transform="translate(64 26) translate(14 10) translate(161 26)"/>
                        <path stroke="#6BAD10" stroke-linecap="round" stroke-linejoin="round" stroke-width=".5" d="M2 14.786L4.942 11.929 9.355 11.929 10.826 15.5 13.4 15.5 17.445 12.643 20.755 14.786 23.329 11.214 28.11 8.357 30.316 5.5 35.465 4.071 37.303 6.214 40.245 8.357 43.923 5.5 47.232 5.857 48.703 5.857 52.013 0.5 57.161 4.071 59 0.5" transform="translate(64 26) translate(14 10) translate(161 26)"/>
                        <path fill="url(#prefix__f)" d="M22.375 -10.834L38.625 -10.834 38.625 50.166 22.375 50.166z" transform="translate(64 26) translate(14 10) translate(161 26) rotate(-90 30.5 19.666)"/>
                    </g>
                </g>
                <path fill="#2C2C2C" fill-rule="nonzero" d="M85.014 49v-1.75h-3.637v-2.577h3.384v-1.736h-3.384v-2.195h3.637v-1.736h-5.756V49h5.756zm5.765 0v-8.23h2.714v-1.764h-7.547v1.764h2.714V49h2.12zm6.196 0v-4.313h3.958V49h2.113v-9.994h-2.113v3.917h-3.958v-3.917h-2.119V49h2.12z" transform="translate(64 26)"/>
                <g>
                    <g transform="translate(64 26) translate(14 60) translate(23 20)">
                        <rect width="30" height="30" fill="#F1B033" rx="4"/>
                        <g transform="rotate(-15 45.666 -32.033)">
                            <mask id="prefix__h" fill="#fff">
                                <use xlink:href="#prefix__g"/>
                            </mask>
                            <path fill="#FFF" d="M7.489 5.438c-.361-.268-.857-.357-.857-.357s.451-.267.631-.49c.18-.267.271-.624.271-.847 0-.178.045-1.025-.632-1.515-.496-.357-1.083-.535-1.895-.58V0H3.97v1.65h-.812V0H2.075v1.65H0v1.069H.63c.18 0 .452 0 .587.134.135.178.135.223.135.49V7.62c0 .09 0 .223-.09.313-.09.089-.18.089-.406.089H.225L0 9.27h2.075v1.65h1.083V9.27h.812v1.65h1.083V9.225c.27 0 .54-.045.677-.045.315-.044.992-.133 1.623-.534.632-.446.767-1.114.812-1.783-.045-.713-.315-1.159-.676-1.426zm-4.331-2.63s.316-.044.676-.044c.317 0 .632 0 1.083.133.451.134.677.446.722.847 0 .357-.18.624-.451.802-.316.179-.722.268-1.083.268h-.902V2.808h-.045zm2.346 4.948c-.226.133-.722.267-1.218.267-.452.044-1.173 0-1.173 0V5.794s.676-.044 1.218 0c.541.045.947.179 1.173.267.18.09.54.313.54.803 0 .58-.27.757-.54.892z" mask="url(#prefix__h)"/>
                        </g>
                        <circle cx="15" cy="15" r="9.857" stroke="#FFF"/>
                        <rect fill="url(#prefix__i)" style="mix-blend-mode:overlay" width="30" height="30" rx="4"/>
                    </g>
                    <g>
                        <path fill="#FCECED" fill-opacity=".5" d="M2 11.293L5 11.25 9 10 14 6.25 15 7.5 17.445 9.224 21 10 23.329 7.845 28.11 5.086 30 5 36 7.5 37.303 3.017 40.245 5.086 43.923 2.328 47.232 2.672 48.703 2.672 52 5 57.161 0.948 59 1.25 59 25 2 25z" transform="translate(64 26) translate(14 60) translate(161 29) matrix(-1 0 0 1 61 0)"/>
                        <path stroke="#D0021B" stroke-linecap="round" stroke-linejoin="round" stroke-width=".5" d="M2 11.786L5 11.25 9 10 12 7.5 14 6.25 17.445 9.643 21 10 23.329 8.214 28.11 5.357 30 5 36 7.5 37.303 3.214 40.245 5.357 43.923 2.5 47.232 2.857 48.703 2.857 52 5 57.161 1.071 59 1.25" transform="translate(64 26) translate(14 60) translate(161 29) matrix(-1 0 0 1 61 0)"/>
                        <path fill="url(#prefix__j)" d="M21.75 -13.209L39.25 -13.209 39.25 47.791 21.75 47.791z" transform="translate(64 26) translate(14 60) translate(161 29) rotate(-90 30.5 17.291)"/>
                    </g>
                </g>
                <g>
                    <g transform="translate(64 26) translate(14 110) translate(23 20)">
                        <rect width="30" height="30" fill="#2C2C2C" rx="4"/>
                        <g fill="#FFF" fill-rule="nonzero">
                            <path d="M15.387 0H18l-5.437 5.393c-1.968 1.952-5.158 1.952-7.126 0L0 0h2.613l4.13 4.097c1.247 1.236 3.267 1.236 4.514 0L15.387 0z" transform="translate(6 7.714)"/>
                            <path d="M2.603 14.571H0l5.45-5.4c1.96-1.942 5.14-1.942 7.1 0l5.45 5.4h-2.603l-4.149-4.11c-1.241-1.23-3.255-1.23-4.496 0l-4.149 4.11z" transform="translate(6 7.714)"/>
                        </g>
                        <rect fill="url(#prefix__e)" style="mix-blend-mode:overlay" width="30" height="30" rx="4"/>
                    </g>
                    <g>
                        <path fill="#F6FCEE" fill-opacity=".5" d="M2 13.793L4.942 11.034 9.355 11.034 10.826 14.483 13 8.75 17 8.75 21 8.75 23.329 10.345 28.11 7.586 31 8.75 33 8.75 37 7.5 40.245 7.586 43.923 4.828 47.232 5.172 49 6.25 52 5 57.161 3.448 59 0 59 27.291 2 27.291z" transform="translate(64 26) translate(14 110) translate(161 26.5)"/>
                        <path stroke="#6BAD10" stroke-linecap="round" stroke-linejoin="round" stroke-width=".5" d="M2 14.286L4.942 11.429 9.355 11.429 10.826 15 13 8.75 17 8.75 21 8.75 23.329 10.714 28.11 7.857 31 8.75 35 8.75 37 7.5 40.245 7.857 43.923 5 47.232 5.357 50 6.25 52 5 57.161 3.571 59 0" transform="translate(64 26) translate(14 110) translate(161 26.5)"/>
                        <path fill="url(#prefix__f)" d="M22.375 -11.334L38.625 -11.334 38.625 49.666 22.375 49.666z" transform="translate(64 26) translate(14 110) translate(161 26.5) rotate(-90 30.5 19.166)"/>
                    </g>
                </g>
                <path fill="#2C2C2C" fill-rule="nonzero" d="M82.997 99c1.13 0 2.025-.255 2.683-.766.659-.51.988-1.221.988-2.132 0-.643-.14-1.158-.42-1.545-.28-.388-.738-.652-1.371-.793v-.069c.465-.077.837-.307 1.118-.69.28-.383.42-.873.42-1.47 0-.88-.32-1.52-.96-1.924-.64-.403-1.67-.605-3.087-.605h-3.11V99h3.74zm-.39-6.036h-1.23v-2.222h1.114c.606 0 1.05.083 1.33.25.28.166.42.44.42.823 0 .41-.129.705-.386.882-.258.178-.673.267-1.248.267zm.15 4.286h-1.38v-2.604h1.312c1.185 0 1.778.414 1.778 1.244 0 .46-.14.802-.417 1.025-.278.223-.709.335-1.292.335zm9.779 1.887c1.012 0 1.928-.171 2.748-.513v-1.777c-.998.35-1.848.526-2.55.526-1.672 0-2.509-1.114-2.509-3.343 0-1.07.22-1.906.657-2.505.437-.6 1.055-.899 1.852-.899.365 0 .736.066 1.114.198.379.132.755.287 1.128.465l.684-1.723c-.98-.469-1.955-.704-2.926-.704-.952 0-1.783.209-2.492.626-.708.417-1.252 1.016-1.63 1.798-.378.781-.567 1.692-.567 2.73 0 1.65.385 2.916 1.155 3.798.77.882 1.882 1.323 3.336 1.323zM99.354 99v-4.313h3.958V99h2.112v-9.994h-2.112v3.917h-3.958v-3.917h-2.119V99h2.12zM80.27 149l2.324-3.78 2.324 3.78h2.42l-3.377-5.038 3.138-4.956h-2.284l-2.112 3.596-2.153-3.596h-2.338l3.103 4.84L78 149h2.27zm10.27 0v-3.835h1.128L94.054 149h2.351c-.456-.656-1.435-2.108-2.94-4.354.593-.26 1.051-.62 1.375-1.077.323-.458.485-.981.485-1.569 0-1.007-.326-1.758-.978-2.252-.651-.495-1.656-.742-3.014-.742H88.42V149h2.119zm.683-5.558h-.683v-2.7h.642c.684 0 1.189.1 1.515.301.325.2.488.538.488 1.012 0 .478-.16.83-.478 1.052-.32.224-.814.335-1.484.335zM99.607 149v-3.555h.91c1.239 0 2.195-.285 2.867-.854.672-.57 1.008-1.392 1.008-2.468 0-1.034-.315-1.813-.947-2.334-.63-.522-1.552-.783-2.765-.783h-3.192V149h2.119zm.697-5.291h-.697v-2.967h.964c.579 0 1.004.119 1.275.356.271.237.407.603.407 1.1 0 .492-.162.867-.486 1.125-.323.257-.811.386-1.463.386z" transform="translate(64 26)"/>
            </g>
        </g>
        <g mask="url(#prefix__b)">
            <use fill="#000" filter="url(#prefix__k)" xlink:href="#prefix__l"/>
            <use fill="#FFF" xlink:href="#prefix__l"/>
        </g>
        <path fill="#FBBE50" fill-opacity=".75" d="M70.094 145.786c-1.87-1.366-4.438-1.822-4.438-1.822s2.337-1.366 3.27-2.505c.935-1.367 1.405-3.189 1.405-4.328 0-.91.23-5.238-3.275-7.743-2.568-1.822-5.608-2.733-9.815-2.961V118h-5.375v8.427h-4.207V118H42.05v8.427H31.3v5.466h3.272c.935 0 2.337 0 3.04.683.699.911.699 1.14.699 2.506v21.862c0 .458 0 1.139-.467 1.596-.468.456-.935.456-2.104.456H32.47l-1.169 6.377h10.75v8.427h5.61v-8.427h4.206v8.427h5.61v-8.655c1.4 0 2.803-.23 3.506-.23 1.634-.225 5.142-.68 8.411-2.73 3.275-2.278 3.973-5.694 4.207-9.11-.234-3.645-1.634-5.922-3.506-7.289zM47.5 132.635s1.606-.235 3.436-.235c1.606 0 3.208 0 5.499.704 2.29.705 3.436 2.348 3.665 4.461 0 1.878-.916 3.287-2.29 4.226-1.605.94-3.666 1.409-5.5 1.409h-4.58v-10.565h-.23zm12.478 25.284c-1.177.69-3.769 1.38-6.358 1.38-2.354.227-6.12 0-6.12 0v-11.497s3.53-.23 6.355 0c2.825.228 4.946.92 6.123 1.377.939.463 2.822 1.612 2.822 4.142 0 2.989-1.412 3.906-2.822 4.598z" mask="url(#prefix__b)"/>
    </g>
</svg>
