<svg xmlns="http://www.w3.org/2000/svg" width="200" height="200" viewBox="0 0 200 200"><path fill="#3d73b7" d="M100 58L58 58L58 37ZM100 58L100 16L121 16ZM100 142L142 142L142 163ZM100 142L100 184L79 184ZM58 100L16 100L16 79ZM142 100L142 58L163 58ZM142 100L184 100L184 121ZM58 100L58 142L37 142Z"/><path fill="#84a8d6" d="M58 16L58 58L16 58ZM184 58L142 58L142 16ZM142 184L142 142L184 142ZM16 142L58 142L58 184ZM73 83.5a10.5,10.5 0 1,1 21,0a10.5,10.5 0 1,1 -21,0M106 83.5a10.5,10.5 0 1,1 21,0a10.5,10.5 0 1,1 -21,0M106 116.5a10.5,10.5 0 1,1 21,0a10.5,10.5 0 1,1 -21,0M73 116.5a10.5,10.5 0 1,1 21,0a10.5,10.5 0 1,1 -21,0"/></svg>