<svg xmlns="http://www.w3.org/2000/svg" width="200" height="200" viewBox="0 0 200 200"><path fill="#545454" d="M65 37a14,14 0 1,1 28,0a14,14 0 1,1 -28,0M107 37a14,14 0 1,1 28,0a14,14 0 1,1 -28,0M107 163a14,14 0 1,1 28,0a14,14 0 1,1 -28,0M65 163a14,14 0 1,1 28,0a14,14 0 1,1 -28,0M23 79a14,14 0 1,1 28,0a14,14 0 1,1 -28,0M149 79a14,14 0 1,1 28,0a14,14 0 1,1 -28,0M149 121a14,14 0 1,1 28,0a14,14 0 1,1 -28,0M23 121a14,14 0 1,1 28,0a14,14 0 1,1 -28,0"/><path fill="#e8bace" d="M37 58L16 37L37 16L58 37ZM142 37L163 16L184 37L163 58ZM163 142L184 163L163 184L142 163ZM58 163L37 184L16 163L37 142Z"/><path fill="#d1759d" d="M58 58L100 58L100 79L58 79ZM58 79L79 79L79 100L58 100ZM100 79L79 100L79 79ZM142 58L142 100L121 100L121 58ZM121 58L121 79L100 79L100 58ZM121 100L100 79L121 79ZM142 142L100 142L100 121L142 121ZM142 121L121 121L121 100L142 100ZM100 121L121 100L121 121ZM58 142L58 100L79 100L79 142ZM79 142L79 121L100 121L100 142ZM79 100L100 121L79 121Z"/></svg>