<svg xmlns="http://www.w3.org/2000/svg" width="200" height="200" viewBox="0 0 200 200"><path fill="#e5bae8" d="M79 58L58 37L79 16L100 37ZM100 37L121 16L142 37L121 58ZM121 142L142 163L121 184L100 163ZM100 163L79 184L58 163L79 142ZM37 100L16 79L37 58L58 79ZM142 79L163 58L184 79L163 100ZM163 100L184 121L163 142L142 121ZM58 121L37 142L16 121L37 100Z"/><path fill="#a238a8" d="M58 16L58 58L37 58ZM184 58L142 58L142 37ZM142 184L142 142L163 142ZM16 142L58 142L58 163Z"/><path fill="#cc75d1" d="M100 58L100 91L79 58ZM142 100L109 100L142 79ZM100 142L100 109L121 142ZM58 100L91 100L58 121Z"/></svg>