<svg xmlns="http://www.w3.org/2000/svg" width="200" height="200" viewBox="0 0 200 200"><path fill="#5b5b5b" d="M100 37L79 58L58 37L79 16ZM121 58L100 37L121 16L142 37ZM100 163L121 142L142 163L121 184ZM79 142L100 163L79 184L58 163ZM58 79L37 100L16 79L37 58ZM163 100L142 79L163 58L184 79ZM142 121L163 100L184 121L163 142ZM37 100L58 121L37 142L16 121Z"/><path fill="#8491d6" d="M23 37a14,14 0 1,1 28,0a14,14 0 1,1 -28,0M149 37a14,14 0 1,1 28,0a14,14 0 1,1 -28,0M149 163a14,14 0 1,1 28,0a14,14 0 1,1 -28,0M23 163a14,14 0 1,1 28,0a14,14 0 1,1 -28,0M68 68L96 68L96 96L68 96ZM132 68L132 96L104 96L104 68ZM132 132L104 132L104 104L132 104ZM68 132L68 104L96 104L96 132Z"/></svg>