<svg xmlns="http://www.w3.org/2000/svg" width="200" height="200" viewBox="0 0 200 200"><path fill="#e5e5e5" d="M100 58L58 58L58 37ZM100 58L100 16L121 16ZM100 142L142 142L142 163ZM100 142L100 184L79 184ZM58 100L16 100L16 79ZM142 100L142 58L163 58ZM142 100L184 100L184 121ZM58 100L58 142L37 142Z"/><path fill="#97cc66" d="M16 58L16 16L37 16ZM142 16L184 16L184 37ZM184 142L184 184L163 184ZM58 184L16 184L16 163ZM58 58L100 58L100 100L58 100ZM84.9 95.8L95.8 74L74 74ZM142 58L142 100L100 100L100 58ZM104.2 84.9L126 95.8L126 74ZM142 142L100 142L100 100L142 100ZM115.1 104.2L104.2 126L126 126ZM58 142L58 100L100 100L100 142ZM95.8 115.1L74 104.2L74 126Z"/></svg>