<svg xmlns="http://www.w3.org/2000/svg" width="200" height="200" viewBox="0 0 200 200"><path fill="#7dcc66" d="M65 37a14,14 0 1,1 28,0a14,14 0 1,1 -28,0M107 37a14,14 0 1,1 28,0a14,14 0 1,1 -28,0M107 163a14,14 0 1,1 28,0a14,14 0 1,1 -28,0M65 163a14,14 0 1,1 28,0a14,14 0 1,1 -28,0M23 79a14,14 0 1,1 28,0a14,14 0 1,1 -28,0M149 79a14,14 0 1,1 28,0a14,14 0 1,1 -28,0M149 121a14,14 0 1,1 28,0a14,14 0 1,1 -28,0M23 121a14,14 0 1,1 28,0a14,14 0 1,1 -28,0M58 58L100 58L100 100L58 100ZM68.5 84.3L84.3 100L100 84.3L84.3 68.5ZM142 58L142 100L100 100L100 58ZM115.8 68.5L100 84.3L115.8 100L131.5 84.3ZM142 142L100 142L100 100L142 100ZM131.5 115.8L115.8 100L100 115.8L115.8 131.5ZM58 142L58 100L100 100L100 142ZM84.3 131.5L100 115.8L84.3 100L68.5 115.8Z"/><path fill="#4c4c4c" d="M58 16L58 58L37 58ZM184 58L142 58L142 37ZM142 184L142 142L163 142ZM16 142L58 142L58 163Z"/></svg>