<svg xmlns="http://www.w3.org/2000/svg" width="200" height="200" viewBox="0 0 200 200"><path fill="#329939" d="M100 58L58 58L58 16ZM100 58L100 16L142 16ZM100 142L142 142L142 184ZM100 142L100 184L58 184ZM58 100L16 100L16 58ZM142 100L142 58L184 58ZM142 100L184 100L184 142ZM58 100L58 142L16 142Z"/><path fill="#66cc6c" d="M58 16L58 58L16 58ZM184 58L142 58L142 16ZM142 184L142 142L184 142ZM16 142L58 142L58 184Z"/><path fill="#e5e5e5" d="M58 58L100 58L100 100L58 100ZM72 95L95 95L95 72L72 72ZM142 58L142 100L100 100L100 58ZM105 72L105 95L128 95L128 72ZM142 142L100 142L100 100L142 100ZM128 105L105 105L105 128L128 128ZM58 142L58 100L100 100L100 142ZM95 128L95 105L72 105L72 128Z"/></svg>