<svg xmlns="http://www.w3.org/2000/svg" width="200" height="200" viewBox="0 0 200 200"><path fill="#8a9932" d="M58 16L100 16L100 37ZM142 16L142 58L121 58ZM142 184L100 184L100 163ZM58 184L58 142L79 142ZM16 58L58 58L58 79ZM184 58L184 100L163 100ZM184 142L142 142L142 121ZM16 142L16 100L37 100Z"/><path fill="#bdcc66" d="M23 37a14,14 0 1,1 28,0a14,14 0 1,1 -28,0M149 37a14,14 0 1,1 28,0a14,14 0 1,1 -28,0M149 163a14,14 0 1,1 28,0a14,14 0 1,1 -28,0M23 163a14,14 0 1,1 28,0a14,14 0 1,1 -28,0M58 58L100 58L100 100L58 100ZM68.5 84.3L84.3 100L100 84.3L84.3 68.5ZM142 58L142 100L100 100L100 58ZM115.8 68.5L100 84.3L115.8 100L131.5 84.3ZM142 142L100 142L100 100L142 100ZM131.5 115.8L115.8 100L100 115.8L115.8 131.5ZM58 142L58 100L100 100L100 142ZM84.3 131.5L100 115.8L84.3 100L68.5 115.8Z"/></svg>