<svg xmlns="http://www.w3.org/2000/svg" width="200" height="200" viewBox="0 0 200 200"><path fill="#5b5b5b" d="M100 16L100 58L58 58ZM142 58L100 58L100 16ZM100 184L100 142L142 142ZM58 142L100 142L100 184ZM58 58L58 100L16 100ZM184 100L142 100L142 58ZM142 142L142 100L184 100ZM16 100L58 100L58 142Z"/><path fill="#eaeaea" d="M16 37L37 16L58 37L37 58ZM163 16L184 37L163 58L142 37ZM184 163L163 184L142 163L163 142ZM37 184L16 163L37 142L58 163Z"/><path fill="#8484d6" d="M58 58L100 58L100 87.4L74.8 74.8L87.4 100L58 100ZM142 58L142 100L112.6 100L125.2 74.8L100 87.4L100 58ZM142 142L100 142L100 112.6L125.2 125.2L112.6 100L142 100ZM58 142L58 100L87.4 100L74.8 125.2L100 112.6L100 142Z"/></svg>